<svg xmlns="http://www.w3.org/2000/svg" viewBox="0 0 1254 1254">
<path stroke="#ffffff" stroke-width="7" stroke-linejoin="round" stroke-linecap="round" paint-order="stroke" fill="#5696dc" fill-rule="evenodd" d="M 729 484 C 729 484.3 729 484.7 729 485 C 728 485.1 726.9 485.3 725.9 485.5 C 650.5 496.4 650.5 496.4 640 507 C 639 510.3 639 510.3 639 513 C 650.5 523.5 667.1 525.6 681.8 528.7 C 682.6 528.9 683.4 529.1 684.2 529.3 C 700.4 532.7 716.5 535.9 732.7 538.9 C 894.1 569.6 894.1 569.6 923 607.6 C 927.8 615.2 930.4 623.2 928.5 632.3 C 923.4 651.5 908.4 665 894.6 678.4 C 885.1 687.7 885.1 687.7 884 694 C 885 694.2 885.9 694.4 886.9 694.6 C 937.9 705.3 937.9 705.3 960 718 C 960.6 718.4 961.2 718.7 961.8 719 C 976.1 727.4 989.7 738 994.9 754.2 C 999.2 772.9 993.7 791.1 984 807 C 965.8 835.3 943 863.1 917.4 885 C 915.5 886.6 913.6 888.2 911.8 889.9 C 902.5 898 892.9 905.7 883 913 C 882.3 913.5 881.6 914 880.9 914.5 C 824.5 955.8 758.1 982 689 992 C 687.9 992.2 686.8 992.3 685.7 992.5 C 650.8 997.5 612.8 997.6 578 992 C 577.4 991.9 577.4 991.9 574.1 991.4 C 516.3 982.5 458.9 963.5 410 931 C 413.9 920.8 430.7 913.1 440 908 C 440.7 907.6 441.3 907.3 442 906.9 C 458.4 898.1 476.1 892.3 493.6 886.2 C 494.4 885.9 495.2 885.7 496 885.4 C 501.6 883.4 507.3 881.7 513 880 C 512.7 879.7 512.3 879.3 512 879 C 509.3 879.2 506.7 879.5 504 879.9 C 503.6 879.9 503.6 879.9 501.6 880.2 C 499.8 880.4 498.1 880.6 496.3 880.8 C 493.7 881.2 491.1 881.5 488.5 881.8 C 479.8 882.9 471.3 884.2 462.7 886 C 462 886.2 461.2 886.3 460.4 886.5 C 437.2 891.5 414 904.5 400 924 C 395.1 922.4 391.5 919.5 387.4 916.4 C 386 915.3 384.6 914.2 383.1 913.1 C 382.4 912.6 381.7 912.1 381 911.5 C 378.3 909.5 375.6 907.5 372.9 905.6 C 365.6 900.1 358.8 894.1 352 888 C 351.2 887.3 350.5 886.6 349.7 886 C 343.4 880.4 337.4 874.6 331.4 868.6 C 330.6 867.8 329.7 866.9 328.8 866 C 323.5 860.7 318.6 855.3 314 849.4 C 312.2 847.2 310.3 845.1 308.3 843 C 302.2 836.2 296.9 828.7 291.6 821.2 C 290.6 819.9 289.6 818.5 288.6 817.1 C 279.4 804.5 277.6 792.4 279 777 C 283.1 753.8 302.3 735.4 320.8 722.3 C 341.2 708.3 363.8 698.5 387 690 C 387.4 689.9 387.4 689.9 389.5 689.1 C 440.6 670.4 496.2 662.9 549.6 654.4 C 551.9 654 554.3 653.6 556.6 653.2 C 560.4 652.6 564.1 652 567.9 651.5 C 569.2 651.2 570.6 651 572 650.8 C 574 650.5 575.9 650.2 577.8 649.9 C 578.9 649.7 580 649.5 581.1 649.4 C 583.8 649 586.3 648.9 589 649 C 581.2 660.2 566.7 664.1 554.3 668.5 C 530.8 676.8 506.8 686.2 488 703 C 488.7 702.7 489.3 702.5 490 702.2 C 510.9 693.9 531.6 687.1 553.5 682.1 C 554.2 681.9 554.9 681.8 555.5 681.6 C 557.5 681.1 559.4 680.7 561.3 680.3 C 562.5 680 563.6 679.8 564.7 679.5 C 568.2 679 571.5 678.9 575 679 C 575.1 681.3 575.1 683.5 575.2 685.8 C 575.2 687.1 575.3 688.3 575.3 689.6 C 571.8 700.7 571.8 701.4 571.8 702.1 C 574.9 712.5 573.8 715.8 572 719 C 568.7 731.6 569.3 735.3 570 739 C 553 748.7 553 749.3 553 750 C 551.7 750.7 550.4 751.3 549 752 C 539.3 761.8 536.5 764.2 533.3 766.4 C 532.4 767 531.6 767.6 530.7 768.2 C 529.8 768.8 528.9 769.4 528 770 C 527.2 770.6 526.3 771.1 525.5 771.8 C 520 775.4 516.5 777 509.8 777.5 C 501.2 778.2 495 779.5 488 785 C 487.3 785.5 486.6 786 485.9 786.5 C 481 790.2 476.4 794.2 471.7 798.1 C 471.1 798.6 470.5 799.1 469.9 799.6 C 461.1 807.2 461.1 807.2 459.8 812.8 C 459.6 813.3 459.6 813.3 459 816 C 459.3 816 459.7 816 460 816 C 460.2 817.1 460.4 818.3 460.7 819.4 C 461.7 823.7 463.6 827.2 465.9 831 C 467 833 467 833 468 836 C 466.8 836.1 465.6 836.2 464.4 836.3 C 446.4 837.7 431 843 416 853 C 421.8 852 427.3 850.6 432.9 849 C 446.2 845.4 459.4 844.9 473.1 845.1 C 486.1 845.3 496.8 843.1 509 839 C 507.8 839.2 506.6 839.3 505.4 839.5 C 498.9 840.2 492.5 840.1 486 840 C 489.5 836.4 493.1 833 497 829.8 C 497.5 829.4 498 828.9 498.5 828.5 C 503.1 824.6 506.8 822.7 512.8 822.9 C 513.6 822.9 514.4 822.9 515.2 822.9 C 515.5 822.9 515.5 822.9 517 823 C 517 822.3 517 821.7 517 821 C 518.6 820.7 520.3 820.3 522 820 C 521.9 821.2 521.9 822.3 521.8 823.5 C 520.2 849.1 519.9 876.2 537.7 896.8 C 542.1 901.6 542.1 901.6 546 902 C 547.2 902.1 548.3 902.3 549.5 902.4 C 555.5 902.3 560.2 899.3 565.4 896.6 C 579.4 889.5 593.9 883.6 608.5 877.8 C 609.3 877.5 610.2 877.1 611.1 876.8 C 612.8 876.1 614.5 875.4 616.2 874.8 C 620.6 873 624.9 871.2 629.2 869.1 C 633 867.4 636.5 866.3 640.6 865.5 C 680 857.1 729.1 835.6 753.2 801.9 C 758.5 793.6 762 783.9 761 774 C 759.2 766 756.8 758.9 751 753 C 750.3 752.7 749.7 752.3 749 752 C 749.1 751.3 749.1 750.6 749.2 749.9 C 751 731.7 749.3 714.1 747 696 C 744.8 695.2 744.8 695.2 742 695 C 739.9 696.6 739.9 696.6 737.9 698.9 C 733.2 704 728.1 708.7 722 712 C 719.8 711.9 719.8 711.9 718 711 C 715.9 708.4 714 705.4 714 702 C 712 703 710 704 708 705 C 708.3 697 709.1 689.2 710.8 681.4 C 710.9 680.6 711 679.8 711.2 679 C 712 675.2 712.6 673.4 715.5 670.5 C 718 669 718 669 720 669 C 722.4 664.4 722.2 660.1 722 655 C 721.3 655 720.7 655 720 655 C 720 654.4 720 653.8 719.9 653.2 C 719 651 719 651 715.4 649.2 C 714.3 648.8 713.2 648.4 712 648 C 712 647.3 712 646.7 712 646 C 713.5 644.7 713.5 644.7 715.5 643.3 C 719.9 640.1 724 636.6 728 633 C 726.9 633.5 725.7 634.1 724.6 634.7 C 723 635.4 721.5 636.1 720 636.9 C 719.6 637.1 719.6 637.1 717.8 638 C 707.7 642.8 696.7 645.1 685.7 642 C 684.8 641.7 683.9 641.3 683 641 C 683 640.3 683 639.7 683 639 C 683.4 638.9 683.4 638.9 685.2 638.2 C 734.8 620.7 734.8 620.7 746 602 C 748.2 596.8 748.4 592.4 747 587 C 740.9 572.8 724.3 565.4 710.8 559.9 C 706.2 558.2 701.6 556.6 697 555 C 696.1 554.7 695.2 554.4 694.2 554 C 668.1 545.3 640.9 540.4 614 534.7 C 609.4 533.7 604.7 532.7 600.1 531.7 C 597.6 531.2 595.1 530.7 592.6 530.2 C 584.7 528.5 576.9 526.5 569.2 524 C 568.5 523.8 567.7 523.5 567 523.3 C 562.5 521.8 558.8 519.9 555 517 C 553.8 514.6 553.8 514.6 554 512 C 559.9 503.3 573.5 501.1 583.1 499 C 584.3 498.8 585.4 498.5 586.6 498.2 C 627.5 489.7 669.3 486.9 710.9 484.5 C 711.8 484.5 712.7 484.4 713.6 484.4 C 718.8 484.1 723.9 483.9 729 484 Z M 773 564 C 775 566 776.4 566.7 778.9 567.9 C 779.7 568.2 780.5 568.6 781.3 569 C 782.2 569.4 783 569.7 783.9 570.1 C 799.6 577.4 814.9 586.4 821.8 603 C 824.2 610.8 823 618.5 819.4 625.6 C 818.9 626.4 818.4 627.2 818 628 C 817.6 628.7 817.3 629.3 817 630 C 817.3 630.7 817.7 631.3 818 632 C 824.6 626 831.2 619 832.3 609.6 C 832.6 601.1 830.6 595.2 825 588.7 C 815.2 579 802 573.6 789.4 568.5 C 789 568.3 789 568.3 786.9 567.5 C 782.2 565.6 778 564.5 773 564 Z M 713 677 C 714 681 714 681 714 681 Z M 712 681 C 712 682.6 712 684.3 712 686 C 712.3 686 712.7 686 713 686 C 713 684.4 713 682.7 713 681 C 712.7 681 712.3 681 712 681 Z M 711 687 C 712 690 712 690 712 690 Z M 710 691 C 711 694 711 694 711 694 Z M 751 717 C 752 721 752 721 752 721 Z M 893 740 C 895.4 742.4 897.8 744.9 900.4 747.2 C 914.2 760.2 921.7 775.8 923.3 794.8 C 922.4 822.8 905.3 847.2 886.9 867 C 884.5 869.6 882.2 872.3 880 875 C 904.9 863.6 929.4 835.5 939 810.3 C 942.6 799 942.2 787.7 937 777 C 927.8 759.5 912.5 748.6 895 740 C 894.3 740 893.7 740 893 740 Z M 778 749 C 779 751.1 780.1 753.2 781.2 755.3 C 781.6 756.1 782.1 757 782.5 757.8 C 782.9 758.6 783.4 759.4 783.8 760.3 C 789 772 788.5 786.1 784.3 798 C 780.4 807.1 775.4 814.5 769 822 C 768.7 822.3 768.7 822.3 767.3 824.1 C 762.5 829.9 756.9 834.4 751 839 C 750 839.8 749.1 840.6 748.1 841.4 C 735 851.9 720.3 859.7 705.3 866.9 C 702.7 868.1 700.2 869.4 697.6 870.6 C 688.2 875.2 678.7 879.6 669.1 883.7 C 660.2 887.5 651.5 891.5 643 896 C 642.1 896.5 641.2 896.9 640.3 897.4 C 622.4 907.1 606.7 917.9 592 932 C 591.4 932.6 590.7 933.1 590.1 933.8 C 579.6 943.5 573 956.2 567 969 C 567.7 969.3 568.3 969.7 569 970 C 569.4 969.5 569.8 969 570.2 968.6 C 571.5 967.2 572.7 965.8 574 964.3 C 575.3 962.8 576.6 961.3 577.9 959.8 C 583 953.7 588.7 948.9 595 944 C 595.5 943.6 595.5 943.6 597.7 941.9 C 626.9 919.2 661.2 905.7 695.2 892.1 C 718 883 741.4 873.5 762 860 C 762.7 859.5 763.4 859.1 764.1 858.6 C 773.9 852.1 782.8 845.2 791 837 C 791.8 836.2 792.6 835.4 793.5 834.6 C 804.6 822.9 811.5 809.3 811.4 793 C 810.9 778.8 802.9 767.6 793 758 C 788.3 754.2 783.7 751.1 778 749 Z M 376.9 820.2 C 370.6 827.7 366.7 837.3 366 847 C 369.2 844 372 840.8 374.7 837.3 C 393.4 813.8 421.4 799.5 449.6 790.2 C 450.4 789.9 451.2 789.7 452 789.4 C 452.7 789.2 453.4 789 454.1 788.7 C 456 788 456 788 459 786 C 429.6 784.2 396.8 799.2 376.9 820.2 Z M 675 555 C 692.8 556.8 714.2 562.6 726.6 576.1 C 729.5 580 730.4 583 730.3 587.9 C 729.8 591.5 728 594 726 597 C 724.8 594.6 725 593.2 725 590.5 C 724.3 583.4 720.3 579.5 715 575 C 703.1 566.3 689 560.2 675 556 C 675 555.7 675 555.3 675 555 Z Z"/>
<path stroke="#ffffff" stroke-width="7" stroke-linejoin="round" stroke-linecap="round" paint-order="stroke" fill="#c7a7e1" fill-rule="evenodd" d="M 831.0 276.0C 843.4 286.3 851.7 299.9 854.0 316.0C 855.0 333.2 850.8 349.8 839.8 363.4C 827.8 375.7 813.2 382.9 796.1 383.2C 778.1 382.9 762.9 375.8 750.4 362.9C 739.7 350.1 734.9 334.7 736.0 318.0C 738.4 300.1 746.9 286.2 761.0 275.0C 781.4 259.7 810.9 261.5 831.0 276.0Z "/>
</svg>