<svg xmlns="http://www.w3.org/2000/svg" viewBox="0 0 315 315">
<path stroke="#ffffff" stroke-width="7" stroke-linejoin="round" stroke-linecap="round" paint-order="stroke" fill="#044b90" fill-rule="evenodd" d="M 195 15 C 198.1 18.1 198.8 21.5 199.7 25.8 C 199.8 26.3 199.8 26.3 200.5 29.3 C 200.5 29.7 200.5 29.7 201 32 C 201.8 32 202.5 32 203.3 32.1 C 211.4 32.5 211.4 32.5 214.7 35.1 C 215.1 35.7 215.5 36.3 216 37 C 214.6 41.4 212.9 43.5 209 46 C 205.7 47.2 205.7 47.2 203 48 C 203.1 49.1 203.2 50.3 203.2 51.4 C 203.3 56.5 201.6 60.7 199 65 C 198 65.7 197 66.3 196 67 C 196.3 67.8 196.3 67.8 198 72 C 191.2 76 191.2 76 189 76 C 189 76.7 189 77.3 189 78 C 189.6 77.9 190.2 77.9 190.9 77.8 C 193.7 77.5 196.6 77.3 199.4 77.1 C 200.4 77 201.4 76.9 202.4 76.8 C 210 76.3 214.2 78.1 220 83 C 222.7 81.7 225.1 80.3 227.6 78.6 C 228.2 78.2 228.9 77.7 229.6 77.3 C 232.4 75.3 235.3 73.3 238.1 71.3 C 239.7 70.2 241.3 69.1 242.9 68 C 247.8 64.6 250.2 61.6 252.2 55.9 C 253 54 253 54 255 52 C 257 51.3 259 50.6 261 50 C 261.7 49.7 262.4 49.4 263.1 49.1 C 265 49 265 49 267.6 50.5 C 271.2 54.3 273 57.8 273 63.1 C 271.4 67.9 268.1 70.3 264 73 C 263.1 75.7 263.1 75.7 262.4 79 C 262.1 80.3 261.8 81.5 261.5 82.8 C 261.4 83.4 261.3 84.1 261.1 84.8 C 253.9 117.7 253.9 117.7 243 125 C 234.8 125.9 228.5 123.2 221 120 C 218.7 119 216.4 118 214 117 C 213 124.3 212 131.5 211 139 C 236.9 133.9 260.8 128.5 282 112 C 282.5 111.7 282.5 111.7 285 110 C 276.2 139 247.4 157.9 222.1 171.5 C 188.3 189.2 146.8 201.1 109 190.1 C 107 189.5 105 188.8 103 188 C 108.5 175.4 122.1 166.1 133.7 159.6 C 138.8 156.6 138.8 156.6 140 153.5 C 140 152.7 140 151.9 140 151 C 140 150.6 140 150.6 140.1 148.5 C 140.1 147.8 140.1 147 140.1 146.2 C 140 145.4 140 144.6 140 143.8 C 140 143.2 140 142.6 140 142 C 139.3 142.8 138.6 143.6 137.8 144.5 C 136.9 145.3 136 146.1 135 147 C 134.2 147 133.5 146.9 132.7 146.8 C 128.7 147.1 126.4 149.5 123.4 152 C 122.1 153 120.9 154 119.6 155.1 C 119 155.6 118.4 156.1 117.7 156.6 C 115.4 158.5 113 160.2 110.6 161.9 C 106.1 165.2 101.6 168.5 97.1 171.9 C 96.5 172.4 95.8 172.9 95.1 173.4 C 91.8 175.9 88.5 178.4 85.2 181 C 84.6 181.4 84 181.9 83.4 182.4 C 81.8 183.6 80.2 184.9 78.6 186.1 C 76 188 76 188 73 189 C 72.9 189.6 72.8 190.2 72.7 190.8 C 69.7 207.3 63 218.4 50 229 C 49.5 229.4 48.9 229.9 48.4 230.3 C 46.7 231.7 45 233.1 43.2 234.4 C 42.7 234.9 42.2 235.3 41.6 235.7 C 37.1 239.2 33.2 241.1 27.5 240.9 C 21.1 239.3 18.1 236.5 14.8 231 C 13.8 229.4 12.9 227.7 12 226 C 11.6 225.3 11.2 224.6 10.9 224 C 9.9 221.7 9.7 220 9.6 217.6 C 9.6 216.9 9.6 216.2 9.5 215.4 C 10.7 209.4 15.4 205.4 19.9 201.7 C 20.5 201.2 21.1 200.8 21.6 200.3 C 33.3 190.8 44.6 182.1 60.1 181.9 C 68 181.5 72 179 78 174 C 81 171.8 84 169.6 86.9 167.4 C 88.6 166.2 90.2 165 91.9 163.8 C 92.7 163.2 93.6 162.5 94.4 161.9 C 96.2 160.6 97.9 159.3 99.6 158.1 C 102.2 156.2 104.8 154.3 107.3 152.4 C 108.1 151.8 108.9 151.2 109.7 150.6 C 113.7 147.6 117.8 144.7 122 142 C 121.1 137.2 121.1 137.2 120 135 C 118 117.4 134.4 96.2 144 82.4 C 148.1 77.5 152.1 76.6 158.3 75.8 C 159.6 75.6 160.8 75.5 162.1 75.3 C 163.1 75.2 164 75.1 165 75 C 164.7 74.7 164.3 74.3 164 74 C 163.7 71.7 163.7 71.7 164 69 C 166 66.7 166 66.7 168 65 C 167 64.7 166 64.3 165 64 C 163 61.1 162.8 58.7 162.9 55.2 C 162.9 54.5 162.9 53.6 162.9 52.8 C 163 52.2 163 51.6 163 51 C 162.5 50.7 161.9 50.5 161.3 50.2 C 161 50 161 50 159.1 49.1 C 158.8 49 158.8 49 157 48.1 C 155 47 155 47 153 45 C 152.6 42.3 152.5 40.7 154.2 38.5 C 156.6 36.6 158.7 36 161.7 35.3 C 162.7 35.1 163.7 34.8 164.7 34.5 C 165.5 34.4 166.2 34.2 167 34 C 167 33.7 167 33.7 167.1 32.3 C 167.6 26.1 168.3 20.5 173.1 16.1 C 176.5 14.8 179.3 14.8 182.9 15 C 187.4 15 190.3 13.9 195 15 Z M 193.6 36.4 C 186.5 39.2 178.5 39.1 171 39 C 172.1 40.5 172.1 40.5 174 42 C 182.5 43.2 191.5 42.4 199 38 C 199.3 37 199.7 36 200 35 C 197 35 197 35 193.6 36.4 Z M 250 73 C 247.1 75 244.2 77.1 241.3 79.2 C 240.5 79.8 239.7 80.3 238.8 80.9 C 234.5 84 230.6 87.1 227 91 C 230 93.3 232.9 95.6 236 98 C 240.5 95.8 240.5 95.8 242.3 92.7 C 242.7 92 243.1 91.4 243.5 90.7 C 243.8 90 244.2 89.3 244.6 88.6 C 245 88 245.4 87.3 245.8 86.6 C 246.9 84.7 248 82.9 249 81 C 249.4 80.3 249.9 79.5 250.3 78.8 C 251.2 76.5 250.7 75.3 250 73 Z M 141 123 C 140.3 125 139.7 127 139 129 C 140 128.7 141 128.3 142 128 C 142 126.4 142 124.7 142 123 C 141.7 123 141.3 123 141 123 Z M 297 99 C 297.3 99 297.7 99 298 99 C 304 131.3 301.8 165.3 283 193.3 C 265 217.6 240.9 235.6 215 251 C 214.2 251.5 213.4 251.9 212.6 252.4 C 192.2 264.6 171.1 274.1 149 282.8 C 134.3 288.6 119.8 294.8 105.8 302.2 C 102.5 303.7 99.5 304.1 96 303 C 84.7 294.6 80.8 277.9 78.4 264.8 C 75.6 239.2 80.3 214.6 87 190 C 90.8 191.2 94.4 192.6 97.9 194.4 C 130.2 209.4 168.2 202 200.3 190.6 C 222.4 182.3 242.7 171 261 156 C 261.4 155.6 261.4 155.6 263.6 153.9 C 280.9 139.2 290 120.1 297 99 Z"/>
</svg>